<svg width="24" height="24" viewBox="0 0 24 24" fill="none" xmlns="http://www.w3.org/2000/svg">
<path d="M10.7984 2.40039C9.5254 2.40039 8.3045 2.9061 7.40432 3.80628C6.50415 4.70645 5.99844 5.92735 5.99844 7.20039C5.99844 8.47343 6.50415 9.69433 7.40432 10.5945C8.3045 11.4947 9.5254 12.0004 10.7984 12.0004C12.0715 12.0004 13.2924 11.4947 14.1925 10.5945C15.0927 9.69433 15.5984 8.47343 15.5984 7.20039C15.5984 5.92735 15.0927 4.70645 14.1925 3.80628C13.2924 2.9061 12.0715 2.40039 10.7984 2.40039ZM4.80924 13.2004C4.49316 13.199 4.17991 13.26 3.88748 13.38C3.59505 13.4999 3.3292 13.6765 3.1052 13.8995C2.88119 14.1225 2.70344 14.3876 2.58215 14.6794C2.46087 14.9713 2.39843 15.2843 2.39844 15.6004C2.39844 17.6296 3.39804 19.1596 4.96044 20.1568C6.49884 21.1372 8.57244 21.6004 10.7984 21.6004H10.8584C10.8183 21.4029 10.7982 21.2019 10.7984 21.0004V16.2004C10.7984 15.5 11.0433 14.8217 11.4909 14.283C11.9384 13.7443 12.5603 13.3791 13.2488 13.2508L13.2584 13.2004H4.80924ZM14.3984 13.8004V14.4004H13.7984C13.321 14.4004 12.8632 14.59 12.5256 14.9276C12.1881 15.2652 11.9984 15.723 11.9984 16.2004V21.0004C11.9984 21.4778 12.1881 21.9356 12.5256 22.2732C12.8632 22.6107 13.321 22.8004 13.7984 22.8004H20.9984C21.4758 22.8004 21.9337 22.6107 22.2712 22.2732C22.6088 21.9356 22.7984 21.4778 22.7984 21.0004V16.2004C22.7984 15.723 22.6088 15.2652 22.2712 14.9276C21.9337 14.59 21.4758 14.4004 20.9984 14.4004H20.3984V13.8004C20.3984 13.323 20.2088 12.8652 19.8712 12.5276C19.5337 12.19 19.0758 12.0004 18.5984 12.0004H16.1984C15.721 12.0004 15.2632 12.19 14.9256 12.5276C14.5881 12.8652 14.3984 13.323 14.3984 13.8004ZM16.1984 13.2004H18.5984C18.7576 13.2004 18.9102 13.2636 19.0227 13.3761C19.1352 13.4886 19.1984 13.6413 19.1984 13.8004V14.4004H15.5984V13.8004C15.5984 13.6413 15.6617 13.4886 15.7742 13.3761C15.8867 13.2636 16.0393 13.2004 16.1984 13.2004Z" fill="url(#paint0_linear_4940_4692)"/>
<defs>
<linearGradient id="paint0_linear_4940_4692" x1="12.5984" y1="2.40039" x2="12.5984" y2="22.8004" gradientUnits="userSpaceOnUse">
<stop stop-color="#111A2E"/>
<stop offset="1" stop-color="#375494"/>
</linearGradient>
</defs>
</svg>
