<svg width="24" height="24" viewBox="0 0 24 24" fill="none" xmlns="http://www.w3.org/2000/svg">
<path d="M6.962 1.171C8.238 1 9.87 1 11.943 1H12.057C14.13 1 15.762 1 17.037 1.171C18.347 1.347 19.391 1.716 20.212 2.538C21.034 3.359 21.402 4.404 21.579 5.712C21.75 6.988 21.75 8.62 21.75 10.693V10.807C21.75 12.88 21.75 14.512 21.579 15.787C21.403 17.097 21.034 18.141 20.212 18.962C19.391 19.784 18.346 20.152 17.038 20.329C15.762 20.5 14.13 20.5 12.057 20.5H11.943C9.87 20.5 8.238 20.5 6.963 20.329C5.653 20.153 4.609 19.784 3.788 18.962C2.966 18.141 2.598 17.096 2.421 15.788C2.25 14.512 2.25 12.88 2.25 10.807V10.693C2.25 8.62 2.25 6.988 2.421 5.713C2.597 4.403 2.966 3.359 3.788 2.538C4.609 1.716 5.654 1.348 6.962 1.171ZM11.735 5.603C11.7031 5.44478 11.6211 5.30106 11.501 5.19318C11.381 5.08531 11.2294 5.01904 11.0686 5.00421C10.9079 4.98939 10.7467 5.0268 10.609 5.1109C10.4712 5.19499 10.3643 5.32128 10.304 5.471L8.492 10H7C6.80109 10 6.61032 10.079 6.46967 10.2197C6.32902 10.3603 6.25 10.5511 6.25 10.75C6.25 10.9489 6.32902 11.1397 6.46967 11.2803C6.61032 11.421 6.80109 11.5 7 11.5H9C9.1499 11.4999 9.29632 11.4549 9.42038 11.3707C9.54444 11.2866 9.64044 11.1672 9.696 11.028L10.759 8.371L12.265 15.897C12.2969 16.0552 12.3789 16.1989 12.499 16.3068C12.619 16.4147 12.7706 16.481 12.9314 16.4958C13.0921 16.5106 13.2533 16.4732 13.391 16.3891C13.5288 16.305 13.6357 16.1787 13.696 16.029L15.508 11.5H17C17.1989 11.5 17.3897 11.421 17.5303 11.2803C17.671 11.1397 17.75 10.9489 17.75 10.75C17.75 10.5511 17.671 10.3603 17.5303 10.2197C17.3897 10.079 17.1989 10 17 10H15C14.8502 10 14.7039 10.0449 14.5798 10.1289C14.4558 10.2128 14.3597 10.332 14.304 10.471L13.24 13.13L11.735 5.603Z" fill="url(#paint0_linear_4940_4656)"/>
<defs>
<linearGradient id="paint0_linear_4940_4656" x1="12" y1="1" x2="12" y2="20.5" gradientUnits="userSpaceOnUse">
<stop stop-color="#111A2E"/>
<stop offset="1" stop-color="#375494"/>
</linearGradient>
</defs>
</svg>
