<svg width="20" height="20" viewBox="0 0 20 20" fill="none" xmlns="http://www.w3.org/2000/svg">
<g clip-path="url(#clip0_4875_4404)">
<path d="M18.2603 16.753C19.3852 15.5461 19.9984 14.054 19.9984 12.4995C19.9984 10.5544 19.0376 8.79284 17.4987 7.54297C17.4635 11.9995 13.2726 15.6242 8.12465 15.6242H4.64062C5.98814 17.8466 8.72615 19.3738 11.8743 19.3738H19.3735C19.6274 19.3738 19.8539 19.2215 19.9516 18.9871C20.0492 18.7528 19.9945 18.4833 19.8149 18.3075L18.2603 16.753Z" fill="url(#paint0_linear_4875_4404)"/>
<path d="M8.12519 0.625977C3.64518 0.625977 0.00101658 3.70769 0.00101658 7.50028C0.00101658 9.05481 0.614236 10.5429 1.73912 11.7538L0.184592 13.3083C0.00492243 13.488 -0.0497595 13.7575 0.0478868 13.9879C0.145533 14.2223 0.372073 14.3746 0.625953 14.3746H8.12519C12.6052 14.3746 16.2494 11.2929 16.2494 7.50028C16.2494 3.70769 12.6052 0.625977 8.12519 0.625977Z" fill="url(#paint1_linear_4875_4404)"/>
<path d="M11.8742 5.625H4.37494C4.03122 5.625 3.75 5.90622 3.75 6.24994C3.75 6.59365 4.03122 6.87487 4.37494 6.87487H11.8742C12.2179 6.87487 12.4991 6.59365 12.4991 6.24994C12.4991 5.90622 12.2179 5.625 11.8742 5.625Z" fill="#FAFAFA"/>
<path d="M9.37443 8.125H4.37494C4.03122 8.125 3.75 8.40622 3.75 8.74994C3.75 9.09365 4.03122 9.37487 4.37494 9.37487H9.37443C9.71814 9.37487 9.99937 9.09365 9.99937 8.74994C9.99937 8.40622 9.71814 8.125 9.37443 8.125Z" fill="#FAFAFA"/>
</g>
<defs>
<linearGradient id="paint0_linear_4875_4404" x1="12.32" y1="7.54297" x2="12.32" y2="19.3738" gradientUnits="userSpaceOnUse">
<stop stop-color="#111A2E"/>
<stop offset="1" stop-color="#375494"/>
</linearGradient>
<linearGradient id="paint1_linear_4875_4404" x1="8.12468" y1="0.625977" x2="8.12468" y2="14.3746" gradientUnits="userSpaceOnUse">
<stop stop-color="#111A2E"/>
<stop offset="1" stop-color="#375494"/>
</linearGradient>
<clipPath id="clip0_4875_4404">
<rect width="20" height="20" fill="white"/>
</clipPath>
</defs>
</svg>
