<svg width="18" height="18" viewBox="0 0 18 18" fill="none" xmlns="http://www.w3.org/2000/svg">
<path fill-rule="evenodd" clip-rule="evenodd" d="M16.2872 5.64401L15.2416 6.68973L15.2141 6.71718L8.50708 13.4242C8.41913 13.5121 8.30457 13.5683 8.18129 13.5842L4.55077 14.0452C4.4655 14.056 4.37889 14.0471 4.29764 14.019C4.2164 13.991 4.14268 13.9447 4.08222 13.8836C4.02175 13.8225 3.97614 13.7483 3.94893 13.6668C3.92173 13.5853 3.91364 13.4986 3.92531 13.4134L4.41703 9.81386C4.43368 9.69262 4.4894 9.58012 4.57576 9.49342L11.5159 2.55384L12.5615 1.50819L12.6362 1.43349H1.50882C1.10882 1.43388 0.725299 1.59294 0.442431 1.87577C0.159562 2.1586 0.000446746 2.54209 0 2.9421L0 16.2862C0.000409495 16.6863 0.159506 17.0698 0.442377 17.3527C0.725247 17.6355 1.10878 17.7946 1.50882 17.795H14.8529C15.253 17.7946 15.6365 17.6355 15.9194 17.3526C16.2023 17.0698 16.3614 16.6863 16.3619 16.2862V5.56934L16.2872 5.64401ZM16.2069 4.13979L8.46883 11.8778L6.12262 9.5311L13.8607 1.79306L16.2069 4.13979ZM16.9995 3.34769L14.6528 1.00096L15.5864 0.0673948C15.6296 0.0242374 15.6882 0 15.7493 0C15.8104 0 15.869 0.0242374 15.9123 0.0673948L17.9331 2.0882C17.9759 2.13153 18 2.19003 18 2.25099C18 2.31194 17.9759 2.37044 17.9331 2.41377L16.9995 3.34769ZM5.46053 10.4536L7.54282 12.5359L5.13407 12.8417L5.46053 10.4536Z" fill="url(#paint0_linear_4887_4372)"/>
<defs>
<linearGradient id="paint0_linear_4887_4372" x1="8.99999" y1="0" x2="8.99999" y2="17.795" gradientUnits="userSpaceOnUse">
<stop stop-color="#111A2E"/>
<stop offset="1" stop-color="#375494"/>
</linearGradient>
</defs>
</svg>
