<svg width="12" height="13" viewBox="0 0 12 13" fill="none" xmlns="http://www.w3.org/2000/svg">
<mask id="mask0_5224_51937" style="mask-type:luminance" maskUnits="userSpaceOnUse" x="0" y="0" width="12" height="13">
<path d="M0 0.5H12V12.5H0V0.5Z" fill="white"/>
</mask>
<g mask="url(#mask0_5224_51937)">
<path d="M2.55078 6.69961C2.55078 6.23016 2.93134 5.84961 3.40078 5.84961C3.87022 5.84961 4.25078 6.23016 4.25078 6.69961C4.25078 7.16901 3.87022 7.54961 3.40078 7.54961C2.93134 7.54961 2.55078 7.16901 2.55078 6.69961Z" fill="url(#paint0_linear_5224_51937)"/>
<path fill-rule="evenodd" clip-rule="evenodd" d="M5.15595 1.18935C4.15568 0.92134 3.12755 1.51493 2.85953 2.51518L2.75561 2.90304C2.702 3.10309 2.82072 3.30871 3.02078 3.36232C3.22083 3.41592 3.42645 3.2972 3.48005 3.09715L3.58398 2.70929C3.74479 2.10915 4.36166 1.75299 4.96181 1.9138L9.79145 3.20789C10.3916 3.3687 10.7478 3.98558 10.587 4.58573L9.55165 8.44942C9.5148 8.58697 9.45405 8.71167 9.375 8.82037V6.00012C9.375 4.96459 8.53555 4.12512 7.5 4.12512H2.5C1.46447 4.12512 0.625 4.96459 0.625 6.00012V10.0001C0.625 11.0357 1.46447 11.8751 2.5 11.8751H7.5C8.53555 11.8751 9.375 11.0357 9.375 10.0001V9.79762C9.80325 9.55977 10.1391 9.15487 10.2761 8.64357L11.3114 4.77985C11.5794 3.7796 10.9858 2.75147 9.98555 2.48345L5.15595 1.18935ZM2.5 4.87512C1.87868 4.87512 1.375 5.3788 1.375 6.00012V9.91737C1.44144 9.78747 1.53412 9.66597 1.63931 9.56077L2.46967 8.73047C2.76256 8.43757 3.23743 8.43757 3.53032 8.73047L4.39995 9.60012L6.4696 7.53047C6.7625 7.23757 7.2374 7.23757 7.5303 7.53047L8.625 8.62517V6.00012C8.625 5.3788 8.1213 4.87512 7.5 4.87512H2.5Z" fill="url(#paint1_linear_5224_51937)"/>
</g>
<defs>
<linearGradient id="paint0_linear_5224_51937" x1="3.40078" y1="5.84961" x2="3.40078" y2="7.54961" gradientUnits="userSpaceOnUse">
<stop stop-color="#111A2E"/>
<stop offset="1" stop-color="#375494"/>
</linearGradient>
<linearGradient id="paint1_linear_5224_51937" x1="6.00037" y1="1.125" x2="6.00037" y2="11.8751" gradientUnits="userSpaceOnUse">
<stop stop-color="#111A2E"/>
<stop offset="1" stop-color="#375494"/>
</linearGradient>
</defs>
</svg>
