<svg width="24" height="24" viewBox="0 0 24 24" fill="none" xmlns="http://www.w3.org/2000/svg">
<path fill-rule="evenodd" clip-rule="evenodd" d="M0.60552 1.20022C0.526264 1.19949 0.447648 1.21447 0.374214 1.2443C0.300781 1.27413 0.233984 1.31821 0.177683 1.37399C0.121382 1.42978 0.0766919 1.49617 0.0461945 1.56933C0.0156971 1.64249 -3.35381e-06 1.72096 5.37368e-10 1.80022L5.37369e-10 18.6698C1.91882e-05 18.7842 0.0327178 18.8961 0.0942445 18.9925C0.155771 19.0889 0.243563 19.1657 0.34728 19.2139L4.884 21.3211C4.8912 20.8941 4.91904 20.466 4.98384 20.0443L1.2 18.2868V2.74054L7.746 5.78134L7.77384 10.6188C7.98943 10.4012 8.22998 10.2099 8.49048 10.0488L8.46648 5.86846L15.3487 2.67142L15.3857 9.11398C15.61 8.93535 15.8501 8.7775 16.103 8.64238L16.0682 2.58646L22.8 5.71342V12.6331C22.801 12.6862 22.801 12.7393 22.8 12.7925V17.088C23.1518 17.3544 23.4696 17.664 23.7334 18.0204C23.8294 18.149 23.9172 18.282 24 18.4178V5.33062C24 5.21627 23.9673 5.1043 23.9058 5.00791C23.8442 4.91151 23.7564 4.83471 23.6527 4.78654L16.0529 1.25614C15.9719 1.21848 15.8835 1.19937 15.7942 1.20022C15.7087 1.20097 15.6245 1.21996 15.547 1.2559L8.19984 4.66894L0.85272 1.25614C0.775242 1.22011 0.690962 1.20105 0.60552 1.20022ZM7.80504 16.1318L7.806 16.2422C7.83144 16.2326 7.85592 16.2199 7.8816 16.2105C7.85496 16.1853 7.8312 16.1577 7.80504 16.1318Z" fill="url(#paint0_linear_4940_4665)"/>
<path d="M18.2392 9.06445C16.2508 9.06445 14.6392 10.6763 14.6392 12.6645C14.6392 14.6526 16.2508 16.2645 18.2392 16.2645C20.2271 16.2645 21.8392 14.6526 21.8392 12.6645C21.8392 10.6763 20.2271 9.06445 18.2392 9.06445ZM18.2392 16.798C14.2624 16.798 12.4792 18.5814 12.4792 22.558V23.038C12.4972 23.9836 12.9153 24.0114 13.7992 23.998H22.6792C23.806 23.997 24.0069 23.9992 23.9992 23.038V22.558C23.9992 18.5814 22.2155 16.798 18.2392 16.798ZM10.5592 10.4135C8.93032 10.4135 7.60936 11.7345 7.60936 13.3636C7.60936 14.9925 8.93032 16.3129 10.5592 16.3129C12.1881 16.3129 13.5088 14.9925 13.5088 13.3633C13.5088 11.7342 12.1881 10.4135 10.5592 10.4135ZM10.5592 16.75C7.3012 16.75 5.83984 18.2116 5.83984 21.4693V21.8627C5.85472 22.6374 6.1972 22.6602 6.92128 22.6492H11.5108C11.3937 20.7081 11.967 18.6465 13.395 17.3358C12.6722 16.9408 11.733 16.75 10.5592 16.75Z" fill="url(#paint1_linear_4940_4665)"/>
<defs>
<linearGradient id="paint0_linear_4940_4665" x1="12" y1="1.2002" x2="12" y2="21.3211" gradientUnits="userSpaceOnUse">
<stop stop-color="#111A2E"/>
<stop offset="1" stop-color="#375494"/>
</linearGradient>
<linearGradient id="paint1_linear_4940_4665" x1="14.9196" y1="9.06445" x2="14.9196" y2="24" gradientUnits="userSpaceOnUse">
<stop stop-color="#111A2E"/>
<stop offset="1" stop-color="#375494"/>
</linearGradient>
</defs>
</svg>
