<svg width="12" height="13" viewBox="0 0 12 13" fill="none" xmlns="http://www.w3.org/2000/svg">
<path d="M4.98469 8.7275C6.90282 9.44375 9.10969 7.925 9.07594 5.82687C9.07594 5.73312 9.00094 5.65625 8.90719 5.65625C8.81532 5.65625 8.73844 5.73312 8.73844 5.82687C8.73844 7.33437 7.51219 8.56063 6.00282 8.56063C4.49344 8.56063 3.26719 7.33437 3.26719 5.82687C3.26719 5.73312 3.19032 5.65625 3.09844 5.65625C3.00469 5.65625 2.92969 5.73312 2.92969 5.82687C2.92782 7.16562 3.78844 8.3075 4.98469 8.7275Z" fill="url(#paint0_linear_5224_51944)"/>
<path d="M6.00094 8.14836C7.28156 8.14836 8.32219 7.10586 8.32219 5.82711V3.55836C8.19469 0.481484 3.80719 0.479609 3.67969 3.55836V5.82711C3.67969 7.10586 4.72031 8.14836 6.00094 8.14836Z" fill="url(#paint1_linear_5224_51944)"/>
<path d="M8.16672 10.5631H7.01734V9.125C6.35922 9.3275 5.63922 9.3275 4.98297 9.125V10.5631H3.83359C3.10234 10.5669 3.10234 11.7444 3.83359 11.75H8.16672C8.89984 11.7462 8.89797 10.5687 8.16672 10.5631Z" fill="url(#paint2_linear_5224_51944)"/>
<defs>
<linearGradient id="paint0_linear_5224_51944" x1="6.00301" y1="5.65625" x2="6.00301" y2="8.90715" gradientUnits="userSpaceOnUse">
<stop stop-color="#111A2E"/>
<stop offset="1" stop-color="#375494"/>
</linearGradient>
<linearGradient id="paint1_linear_5224_51944" x1="6.00094" y1="1.25" x2="6.00094" y2="8.14836" gradientUnits="userSpaceOnUse">
<stop stop-color="#111A2E"/>
<stop offset="1" stop-color="#375494"/>
</linearGradient>
<linearGradient id="paint2_linear_5224_51944" x1="6.00051" y1="9.125" x2="6.00051" y2="11.75" gradientUnits="userSpaceOnUse">
<stop stop-color="#111A2E"/>
<stop offset="1" stop-color="#375494"/>
</linearGradient>
</defs>
</svg>
