<svg width="14" height="16" viewBox="0 0 14 16" fill="none" xmlns="http://www.w3.org/2000/svg">
<path d="M6.99961 12.0259C7.18527 12.0259 7.36333 12.0959 7.49461 12.2203C7.6259 12.3448 7.69965 12.5136 7.69965 12.6897V13.3534C7.69965 13.5295 7.6259 13.6983 7.49461 13.8228C7.36333 13.9472 7.18527 14.0172 6.99961 14.0172C6.81395 14.0172 6.63589 13.9472 6.50461 13.8228C6.37333 13.6983 6.29957 13.5295 6.29957 13.3534V12.6897C6.29957 12.5136 6.37333 12.3448 6.50461 12.2203C6.63589 12.0959 6.81395 12.0259 6.99961 12.0259ZM11.4547 10.6652L11.9496 11.1345C12.0771 11.2597 12.1477 11.4274 12.1461 11.6014C12.1445 11.7754 12.0709 11.9419 11.9411 12.065C11.8113 12.188 11.6357 12.2578 11.4521 12.2593C11.2686 12.2609 11.0918 12.194 10.9597 12.073L10.4648 11.6038C10.3373 11.4786 10.2667 11.3109 10.2683 11.1369C10.2699 10.9629 10.3435 10.7964 10.4733 10.6733C10.6031 10.5503 10.7787 10.4805 10.9623 10.4789C11.1458 10.4774 11.3226 10.5443 11.4547 10.6652ZM2.54457 10.6652C2.67054 10.5462 2.83959 10.4771 3.01736 10.4719C3.19513 10.4668 3.36831 10.526 3.50171 10.6375C3.63512 10.7491 3.71874 10.9046 3.73561 11.0724C3.75248 11.2403 3.70132 11.408 3.59252 11.5414L3.53442 11.6038L3.03949 12.073C2.91352 12.1921 2.74447 12.2612 2.5667 12.2664C2.38892 12.2715 2.21575 12.2123 2.08234 12.1008C1.94894 11.9892 1.86531 11.8337 1.84845 11.6659C1.83158 11.498 1.88274 11.3303 1.99153 11.1969L2.04964 11.1345L2.54457 10.6652ZM6.99961 3.39718C8.11358 3.39718 9.18193 3.81677 9.96963 4.56363C10.7573 5.31049 11.1998 6.32346 11.1998 7.37968C11.1998 8.4359 10.7573 9.44886 9.96963 10.1957C9.18193 10.9426 8.11358 11.3622 6.99961 11.3622C5.88564 11.3622 4.8173 10.9426 4.0296 10.1957C3.2419 9.44886 2.79938 8.4359 2.79938 7.37968C2.79938 6.32346 3.2419 5.31049 4.0296 4.56363C4.8173 3.81677 5.88564 3.39718 6.99961 3.39718ZM1.3993 6.71593C1.57773 6.71612 1.74934 6.7809 1.87909 6.89703C2.00883 7.01317 2.0869 7.17189 2.09736 7.34078C2.10782 7.50967 2.04987 7.67596 1.93535 7.80569C1.82083 7.93543 1.65838 8.0188 1.48121 8.03878L1.3993 8.04343H0.699263C0.520838 8.04324 0.349221 7.97846 0.219479 7.86232C0.0897364 7.74619 0.0116607 7.58746 0.00120409 7.41858C-0.00925247 7.24969 0.0486994 7.08339 0.163219 6.95366C0.277738 6.82393 0.440182 6.74056 0.617359 6.72058L0.699263 6.71593H1.3993ZM13.3 6.71593C13.4856 6.71593 13.6637 6.78586 13.795 6.91034C13.9262 7.03481 14 7.20364 14 7.37968C14 7.55572 13.9262 7.72454 13.795 7.84902C13.6637 7.9735 13.4856 8.04343 13.3 8.04343H12.5999C12.4143 8.04343 12.2362 7.9735 12.1049 7.84902C11.9736 7.72454 11.8999 7.55572 11.8999 7.37968C11.8999 7.20364 11.9736 7.03481 12.1049 6.91034C12.2362 6.78586 12.4143 6.71593 12.5999 6.71593H13.3ZM2.04964 2.68631C2.17018 2.57203 2.33056 2.50337 2.50069 2.49323C2.67081 2.48309 2.839 2.53215 2.97369 2.63122L3.03949 2.68631L3.53442 3.15558C3.65997 3.27503 3.73286 3.43531 3.73829 3.60386C3.74372 3.77242 3.68128 3.93662 3.56365 4.06311C3.44602 4.1896 3.28202 4.26889 3.10496 4.28488C2.92791 4.30087 2.75107 4.25237 2.61037 4.14921L2.54457 4.09412L2.04964 3.62485C1.9184 3.50038 1.84468 3.33158 1.84468 3.15558C1.84468 2.97958 1.9184 2.81078 2.04964 2.68631ZM11.9496 2.68631C12.0808 2.81078 12.1545 2.97958 12.1545 3.15558C12.1545 3.33158 12.0808 3.50038 11.9496 3.62485L11.4547 4.09412C11.3901 4.15752 11.3128 4.20808 11.2274 4.24287C11.142 4.27765 11.0502 4.29596 10.9572 4.29673C10.8643 4.2975 10.7721 4.2807 10.686 4.24733C10.6 4.21395 10.5219 4.16467 10.4561 4.10235C10.3904 4.04003 10.3384 3.96592 10.3032 3.88435C10.268 3.80277 10.2503 3.71537 10.2511 3.62724C10.2519 3.53911 10.2712 3.45201 10.3079 3.37103C10.3446 3.29005 10.3979 3.21681 10.4648 3.15558L10.9597 2.68631C11.091 2.56187 11.269 2.49197 11.4547 2.49197C11.6403 2.49197 11.8183 2.56187 11.9496 2.68631ZM6.99961 0.742188C7.18527 0.742188 7.36333 0.812118 7.49461 0.936595C7.6259 1.06107 7.69965 1.2299 7.69965 1.40594V2.06969C7.69965 2.24572 7.6259 2.41455 7.49461 2.53903C7.36333 2.6635 7.18527 2.73343 6.99961 2.73343C6.81395 2.73343 6.63589 2.6635 6.50461 2.53903C6.37333 2.41455 6.29957 2.24572 6.29957 2.06969V1.40594C6.29957 1.2299 6.37333 1.06107 6.50461 0.936595C6.63589 0.812118 6.81395 0.742188 6.99961 0.742188Z" fill="url(#paint0_linear_3928_11561)"/>
<defs>
<linearGradient id="paint0_linear_3928_11561" x1="7" y1="14.0172" x2="7" y2="0.742188" gradientUnits="userSpaceOnUse">
<stop stop-color="#375494"/>
<stop offset="1" stop-color="#111E2A"/>
</linearGradient>
</defs>
</svg>
