<svg width="12" height="14" viewBox="0 0 12 14" fill="none" xmlns="http://www.w3.org/2000/svg">
<path d="M12 10.8943V11.4934H0V10.8943L1.33333 9.69614V6.10167C1.33333 4.24452 2.68667 2.60904 4.66667 2.08185V1.90812C4.66667 1.59035 4.80714 1.28559 5.05719 1.06089C5.30724 0.836195 5.64638 0.709961 6 0.709961C6.35362 0.709961 6.69276 0.836195 6.94281 1.06089C7.19286 1.28559 7.33333 1.59035 7.33333 1.90812V2.08185C9.31333 2.60904 10.6667 4.24452 10.6667 6.10167V9.69614L12 10.8943ZM7.33333 12.0925C7.33333 12.4102 7.19286 12.715 6.94281 12.9397C6.69276 13.1644 6.35362 13.2906 6 13.2906C5.64638 13.2906 5.30724 13.1644 5.05719 12.9397C4.80714 12.715 4.66667 12.4102 4.66667 12.0925" fill="url(#paint0_linear_3928_11557)"/>
<defs>
<linearGradient id="paint0_linear_3928_11557" x1="6" y1="0.709961" x2="6" y2="13.2906" gradientUnits="userSpaceOnUse">
<stop stop-color="#111E2A"/>
<stop offset="1" stop-color="#375494"/>
</linearGradient>
</defs>
</svg>
