<svg width="24" height="24" viewBox="0 0 24 24" fill="none" xmlns="http://www.w3.org/2000/svg">
<g clip-path="url(#clip0_4940_4687)">
<path fill-rule="evenodd" clip-rule="evenodd" d="M17.188 1.07759C18.4702 0.819408 19.7785 0.713675 21.0855 0.762588C21.3874 0.77432 21.6738 0.89951 21.8874 1.11316C22.1011 1.3268 22.2263 1.61318 22.238 1.91509C22.268 2.62309 22.2715 4.11459 21.923 5.81259C21.718 6.81409 20.5135 7.08559 19.8495 6.42109L18.891 5.46309C18.5177 5.80077 18.1489 6.1433 17.7845 6.49059C16.839 7.39109 15.653 8.58159 14.6525 9.77009C13.8015 10.7811 12.169 10.7741 11.37 9.65509C10.8648 8.94564 10.3399 8.25037 9.796 7.57009C8.679 8.33459 6.36 10.0941 3.753 13.0751C3.591 13.2601 3.42833 13.4498 3.265 13.6441C3.09413 13.847 2.84967 13.9737 2.58538 13.9963C2.3211 14.019 2.05864 13.9357 1.85575 13.7648C1.65286 13.594 1.52615 13.3495 1.50351 13.0852C1.48086 12.8209 1.56413 12.5585 1.735 12.3556C1.907 12.1523 2.07767 11.9534 2.247 11.7591C5.042 8.56309 7.5405 6.68309 8.7435 5.86709C9.585 5.29659 10.689 5.49309 11.3065 6.25709C11.8914 6.98581 12.4552 7.73129 12.997 8.49259C13.0006 8.49715 13.005 8.50104 13.01 8.50409C13.0216 8.50902 13.0339 8.51174 13.0465 8.51209C13.0606 8.51306 13.0747 8.51087 13.0879 8.50568C13.101 8.50049 13.1129 8.49243 13.1225 8.48209C14.1905 7.21359 15.4355 5.96609 16.4045 5.04259C16.821 4.64609 17.1895 4.30609 17.475 4.04759L16.58 3.15059C15.9155 2.48659 16.187 1.28259 17.1885 1.07709M16.8825 21.3621C16.8165 20.4571 16.7505 18.8426 16.7505 15.9996C16.7505 13.1566 16.8165 11.5426 16.8825 10.6366C16.9555 9.63159 17.6895 8.84759 18.7335 8.78359C19.0655 8.76359 19.482 8.74959 20.0005 8.74959C20.519 8.74959 20.9355 8.76359 21.2675 8.78359C22.3115 8.84759 23.0455 9.63159 23.1185 10.6366C23.1845 11.5426 23.2505 13.1566 23.2505 15.9996C23.2505 18.8426 23.1845 20.4566 23.1185 21.3626C23.0455 22.3676 22.3115 23.1516 21.2675 23.2156C20.9355 23.2356 20.519 23.2496 20.0005 23.2496C19.482 23.2496 19.0655 23.2356 18.7335 23.2156C17.6895 23.1516 16.9555 22.3671 16.8825 21.3621ZM0.835 21.6351C0.7865 21.1631 0.75 20.4831 0.75 19.5001C0.75 18.5171 0.7865 17.8371 0.8345 17.3651C0.935 16.3701 1.7335 15.7996 2.608 15.7701C3.07186 15.7557 3.53592 15.7491 4 15.7501C4.5935 15.7501 5.0485 15.7586 5.392 15.7701C6.2665 15.7996 7.065 16.3701 7.1655 17.3651C7.2135 17.8371 7.25 18.5171 7.25 19.5001C7.25 20.4831 7.2135 21.1631 7.166 21.6351C7.065 22.6301 6.266 23.2006 5.392 23.2301C5.0485 23.2416 4.5935 23.2501 4 23.2501C3.4065 23.2501 2.9515 23.2416 2.608 23.2301C1.7335 23.2006 0.9355 22.6301 0.835 21.6351ZM8.75 18.0001C8.75 19.7056 8.7995 20.7821 8.8565 21.4586C8.9425 22.4826 9.7265 23.1821 10.7165 23.2256C11.0485 23.2401 11.4695 23.2501 12 23.2501C12.5305 23.2501 12.9515 23.2401 13.2835 23.2251C14.2735 23.1821 15.0575 22.4826 15.1435 21.4586C15.2005 20.7821 15.25 19.7056 15.25 18.0001C15.25 16.2946 15.2005 15.2181 15.144 14.5416C15.0575 13.5176 14.274 12.8181 13.2835 12.7746C12.9515 12.7601 12.5305 12.7501 12 12.7501C11.4695 12.7501 11.0485 12.7601 10.717 12.7751C9.7265 12.8181 8.942 13.5176 8.856 14.5416C8.8 15.2181 8.75 16.2946 8.75 18.0001Z" fill="url(#paint0_linear_4940_4687)"/>
</g>
<defs>
<linearGradient id="paint0_linear_4940_4687" x1="12.0002" y1="0.750977" x2="12.0002" y2="23.2501" gradientUnits="userSpaceOnUse">
<stop stop-color="#111A2E"/>
<stop offset="1" stop-color="#375494"/>
</linearGradient>
<clipPath id="clip0_4940_4687">
<rect width="24" height="24" fill="white"/>
</clipPath>
</defs>
</svg>
