<svg width="20" height="20" viewBox="0 0 20 20" fill="none" xmlns="http://www.w3.org/2000/svg">
<path d="M20 4.43478V7.21739C20 7.93739 19.3958 8.52174 18.6513 8.52174H18.3816V3.3913C18.3816 3.30435 18.3744 3.21739 18.3636 3.13043H18.6513C19.3958 3.13043 20 3.71478 20 4.43478ZM4.26511 3.13043C3.52063 3.13043 2.91641 3.71478 2.91641 4.43478V7.21739C2.91641 7.93739 3.52063 8.52174 4.26511 8.52174H4.53485V3.3913C4.53485 3.30435 4.54205 3.21739 4.55283 3.13043H4.26511ZM13.9758 0H8.94062C8.39395 0 7.95157 0.427826 7.95157 0.956522V1.21739H14.9648V0.956522C14.9648 0.427826 14.5225 0 13.9758 0ZM13.9758 5.04348C13.7278 5.04348 13.5262 5.23843 13.5262 5.47826C13.5262 5.71809 13.7278 5.91304 13.9758 5.91304C14.2238 5.91304 14.4254 5.71809 14.4254 5.47826C14.4254 5.23843 14.2238 5.04348 13.9758 5.04348ZM8.94062 5.91304C9.1886 5.91304 9.39019 5.71809 9.39019 5.47826C9.39019 5.23843 9.1886 5.04348 8.94062 5.04348C8.69264 5.04348 8.49105 5.23843 8.49105 5.47826C8.49105 5.71809 8.69264 5.91304 8.94062 5.91304ZM17.8421 3.3913V10.3478C17.8421 11.1702 17.2178 11.8539 16.4035 11.9793V13.7979C16.4035 14.0339 16.2668 14.2442 16.0468 14.3464C15.959 14.3872 15.8656 14.4076 15.773 14.4076C15.6334 14.4076 15.4955 14.3621 15.3811 14.2734L12.4425 12H6.78273C5.84076 12 5.07437 11.2588 5.07437 10.3478V3.3913C5.07437 2.48031 5.84076 1.73913 6.78273 1.73913H16.1337C17.0757 1.73913 17.8421 2.48031 17.8421 3.3913ZM7.95157 5.47826C7.95157 6.00577 8.39517 6.43478 8.94062 6.43478C9.48607 6.43478 9.92967 6.00577 9.92967 5.47826C9.92967 4.95075 9.48607 4.52174 8.94062 4.52174C8.39517 4.52174 7.95157 4.95075 7.95157 5.47826ZM14.6029 8.34883C14.5011 8.24421 14.3304 8.23878 14.2216 8.33659C13.4697 9.01663 12.4882 9.39127 11.4582 9.39127C10.4282 9.39127 9.44673 9.01663 8.69476 8.33659C8.58622 8.23878 8.41553 8.24421 8.31349 8.34883C8.21182 8.45412 8.21743 8.6192 8.3263 8.7177C9.17853 9.48842 10.2909 9.91301 11.4582 9.91301C12.6255 9.91301 13.7378 9.48842 14.59 8.7177C14.6989 8.6192 14.7046 8.45412 14.6029 8.34883ZM14.9648 5.47826C14.9648 4.95075 14.5212 4.52174 13.9758 4.52174C13.4303 4.52174 12.9867 4.95075 12.9867 5.47826C12.9867 6.00577 13.4303 6.43478 13.9758 6.43478C14.5212 6.43478 14.9648 6.00577 14.9648 5.47826ZM15.773 14.9294C15.5096 14.9294 15.2504 14.8407 15.0432 14.68L12.2534 12.5217H6.78273C5.54325 12.5217 4.53489 11.5465 4.53489 10.3478V9.04348H4.26515C3.22395 9.04348 2.37696 8.22417 2.37696 7.21739V6.5543C1.12997 7.78616 0.290964 9.4065 0.0887305 11.2079C-0.0796958 12.7075 0.187599 14.2045 0.861772 15.5445L0.0219785 18.5754C-0.036861 18.788 0.0241005 19.0078 0.184938 19.1634C0.345991 19.319 0.573581 19.3781 0.792898 19.321L3.57652 18.5995C4.94982 19.518 6.5477 20 8.21815 20C8.29119 20 8.36442 19.999 8.43782 19.9973C11.8083 19.913 14.687 17.8119 15.8507 14.9208C15.8247 14.9225 15.799 14.9294 15.773 14.9294Z" fill="url(#paint0_linear_4887_4424)"/>
<defs>
<linearGradient id="paint0_linear_4887_4424" x1="10" y1="0" x2="10" y2="20" gradientUnits="userSpaceOnUse">
<stop stop-color="#111A2E"/>
<stop offset="1" stop-color="#375494"/>
</linearGradient>
</defs>
</svg>
