<svg width="22" height="22" viewBox="0 0 22 22" fill="none" xmlns="http://www.w3.org/2000/svg">
<path d="M17.1217 0H4.87826C3.58478 0.00101331 2.34456 0.515297 1.42993 1.42993C0.515297 2.34456 0.00101331 3.58478 0 4.87826V17.1217C0.00101331 18.4152 0.515297 19.6554 1.42993 20.5701C2.34456 21.4847 3.58478 21.999 4.87826 22H17.1217C18.4152 21.999 19.6554 21.4847 20.5701 20.5701C21.4847 19.6554 21.999 18.4152 22 17.1217V4.87826C21.999 3.58478 21.4847 2.34456 20.5701 1.42993C19.6554 0.515297 18.4152 0.00101331 17.1217 0ZM4.96243 13.816C4.9247 13.8164 4.88728 13.8091 4.85243 13.7947C4.81757 13.7802 4.78601 13.7588 4.75965 13.7318C4.70591 13.678 4.67573 13.6051 4.67573 13.529C4.67573 13.453 4.70591 13.3801 4.75965 13.3263L6.26713 11.815C6.32142 11.7612 6.39485 11.7312 6.47127 11.7315C6.54768 11.7319 6.62083 11.7626 6.67461 11.8169C6.72839 11.8712 6.7584 11.9446 6.75804 12.021C6.75769 12.0974 6.72698 12.1706 6.6727 12.2243L5.16522 13.7318C5.13872 13.7587 5.10714 13.7799 5.07232 13.7944C5.0375 13.8088 5.00014 13.8162 4.96243 13.816ZM7.9047 14.5009L5.99165 16.4139C5.9372 16.4679 5.86363 16.4982 5.78696 16.4982C5.71029 16.4982 5.63672 16.4679 5.58226 16.4139C5.52919 16.359 5.49954 16.2856 5.49954 16.2092C5.49954 16.1328 5.52919 16.0595 5.58226 16.0045L7.49531 14.0915C7.5497 14.0408 7.62165 14.0132 7.69599 14.0145C7.77033 14.0158 7.84126 14.0459 7.89384 14.0985C7.94641 14.1511 7.97653 14.222 7.97784 14.2964C7.97915 14.3707 7.95156 14.4426 7.90087 14.497L7.9047 14.5009ZM10.2003 15.7329L8.68904 17.2403C8.63524 17.2941 8.56231 17.3243 8.48626 17.3243C8.41022 17.3243 8.33728 17.2941 8.28348 17.2403C8.22974 17.1865 8.19956 17.1136 8.19956 17.0376C8.19956 16.9615 8.22974 16.8886 8.28348 16.8348L9.79096 15.3273C9.84474 15.273 9.91788 15.2423 9.9943 15.242C10.0707 15.2416 10.1441 15.2716 10.1984 15.3254C10.2527 15.3792 10.2834 15.4523 10.2838 15.5287C10.2841 15.6052 10.2541 15.6786 10.2003 15.7329ZM17.8181 4.5607L13.2957 18.0323C13.2779 18.0886 13.2428 18.1377 13.1953 18.1728C13.1479 18.2078 13.0906 18.227 13.0317 18.2275C12.9737 18.2275 12.9171 18.21 12.8693 18.1772C12.8215 18.1444 12.7847 18.0979 12.7638 18.0438L10.3381 11.6543L3.94852 9.22852C3.89287 9.20768 3.84519 9.16987 3.81223 9.12043C3.77927 9.07098 3.7627 9.01243 3.76487 8.95304C3.76536 8.89407 3.7845 8.83677 3.81955 8.78935C3.85461 8.74193 3.90377 8.70681 3.96 8.68904L17.4393 4.19722C17.4909 4.17496 17.5479 4.16835 17.6033 4.17821C17.6586 4.18807 17.7098 4.21396 17.7506 4.25267C17.7913 4.29139 17.8198 4.34122 17.8325 4.39597C17.8452 4.45073 17.8415 4.50801 17.8219 4.5607H17.8181Z" fill="url(#paint0_linear_5224_52009)"/>
<defs>
<linearGradient id="paint0_linear_5224_52009" x1="11" y1="0" x2="11" y2="22" gradientUnits="userSpaceOnUse">
<stop stop-color="#111A2E"/>
<stop offset="1" stop-color="#375494"/>
</linearGradient>
</defs>
</svg>
