<svg width="10" height="11" viewBox="0 0 10 11" fill="none" xmlns="http://www.w3.org/2000/svg">
<path d="M3.21652 5.39244C3.41376 5.39244 3.57366 5.07264 3.57366 4.67815C3.57366 4.28366 3.41376 3.96387 3.21652 3.96387C3.01927 3.96387 2.85938 4.28366 2.85938 4.67815C2.85938 5.07264 3.01927 5.39244 3.21652 5.39244Z" fill="url(#paint0_linear_5224_51932)"/>
<path d="M6.79074 5.39244C6.98798 5.39244 7.14788 5.07264 7.14788 4.67815C7.14788 4.28366 6.98798 3.96387 6.79074 3.96387C6.59349 3.96387 6.43359 4.28366 6.43359 4.67815C6.43359 5.07264 6.59349 5.39244 6.79074 5.39244Z" fill="url(#paint1_linear_5224_51932)"/>
<path d="M5 0.5C4.0111 0.5 3.0444 0.793245 2.22215 1.34265C1.3999 1.89206 0.759043 2.67295 0.380604 3.58658C0.00216642 4.50021 -0.0968502 5.50555 0.0960758 6.47545C0.289002 7.44535 0.765206 8.33627 1.46447 9.03553C2.16373 9.73479 3.05465 10.211 4.02455 10.4039C4.99445 10.5969 5.99979 10.4978 6.91342 10.1194C7.82705 9.74096 8.60794 9.10009 9.15735 8.27785C9.70676 7.4556 10 6.48891 10 5.5C9.99849 4.17438 9.47122 2.90349 8.53386 1.96614C7.59651 1.02878 6.32562 0.501512 5 0.5ZM2.5 4.67857C2.5 4.07786 2.81375 3.60714 3.21429 3.60714C3.61482 3.60714 3.92857 4.07786 3.92857 4.67857C3.92857 5.27928 3.61482 5.75 3.21429 5.75C2.81375 5.75 2.5 5.27911 2.5 4.67857ZM7.06018 6.79321C6.44387 7.1834 5.72944 7.39054 5 7.39054C4.27057 7.39054 3.55613 7.1834 2.93982 6.79321C2.91974 6.78076 2.90234 6.76445 2.88861 6.74522C2.87488 6.72599 2.8651 6.70422 2.85985 6.68119C2.85459 6.65815 2.85396 6.6343 2.85798 6.61102C2.86201 6.58774 2.87062 6.56549 2.88331 6.54556C2.89599 6.52563 2.91251 6.50841 2.9319 6.49491C2.95129 6.48141 2.97317 6.47189 2.99626 6.46691C3.01936 6.46192 3.04322 6.46157 3.06645 6.46587C3.08968 6.47017 3.11183 6.47904 3.13161 6.49196C3.69054 6.84583 4.33847 7.03369 5 7.03369C5.66153 7.03369 6.30946 6.84583 6.86839 6.49196C6.88817 6.47904 6.91032 6.47017 6.93355 6.46587C6.95679 6.46157 6.98064 6.46192 7.00374 6.46691C7.02683 6.47189 7.04871 6.48141 7.0681 6.49491C7.08749 6.50841 7.10401 6.52563 7.1167 6.54556C7.12938 6.56549 7.13799 6.58774 7.14202 6.61102C7.14605 6.6343 7.14541 6.65815 7.14016 6.68119C7.1349 6.70422 7.12512 6.72599 7.11139 6.74522C7.09767 6.76445 7.08026 6.78076 7.06018 6.79321ZM6.78571 5.75C6.38518 5.75 6.07143 5.27946 6.07143 4.67857C6.07143 4.07768 6.38518 3.60714 6.78571 3.60714C7.18625 3.60714 7.5 4.07786 7.5 4.67857C7.5 5.27928 7.18625 5.75 6.78571 5.75Z" fill="url(#paint2_linear_5224_51932)"/>
<defs>
<linearGradient id="paint0_linear_5224_51932" x1="3.21652" y1="3.96387" x2="3.21652" y2="5.39244" gradientUnits="userSpaceOnUse">
<stop stop-color="#111A2E"/>
<stop offset="1" stop-color="#375494"/>
</linearGradient>
<linearGradient id="paint1_linear_5224_51932" x1="6.79074" y1="3.96387" x2="6.79074" y2="5.39244" gradientUnits="userSpaceOnUse">
<stop stop-color="#111A2E"/>
<stop offset="1" stop-color="#375494"/>
</linearGradient>
<linearGradient id="paint2_linear_5224_51932" x1="5" y1="0.5" x2="5" y2="10.5" gradientUnits="userSpaceOnUse">
<stop stop-color="#111A2E"/>
<stop offset="1" stop-color="#375494"/>
</linearGradient>
</defs>
</svg>
