<svg width="23" height="19" viewBox="0 0 23 19" fill="none" xmlns="http://www.w3.org/2000/svg">
<path d="M10.6797 9.52441H11.3516C12.4588 9.52458 13.4737 10.1324 14 11.1064L15.1562 13.251L15.167 13.2705L15.1865 13.2598C15.6479 12.9829 16.1812 12.8292 16.7383 12.8291H17.4102C18.5174 12.8292 19.5322 13.4372 20.0586 14.4111L21.3633 16.8311C21.5744 17.2232 21.4273 17.7095 21.0352 17.9209C20.643 18.132 20.1567 17.9849 19.9453 17.5928L19.0225 15.875L18.9824 15.8848V17.21C18.9824 17.8073 18.4997 18.2899 17.9023 18.29H16.25C15.6526 18.29 15.1699 17.8074 15.1699 17.21V15.8848L15.1289 15.875L14.2031 17.5928C13.9918 17.9847 13.5056 18.1288 13.1133 17.9209C12.7213 17.7131 12.5772 17.2236 12.7852 16.8311L14.0342 14.5078L14.042 14.4932L14.0312 14.4824C14.0027 14.4539 13.9754 14.4237 13.9512 14.3916L13.8867 14.2881L12.9639 12.5693L12.9238 12.5801V14.4561C12.9238 15.0534 12.441 15.5359 11.8438 15.5361H10.1914C9.59397 15.5361 9.11133 15.0535 9.11133 14.4561V12.5801L9.07031 12.5693L8.14453 14.2871C8.10413 14.3612 8.05696 14.4255 8 14.4824L7.98926 14.4932L7.99609 14.5078L9.24609 16.8311C9.4573 17.2233 9.30937 17.7096 8.91699 17.9209C8.5357 18.126 8.0666 17.9921 7.84668 17.624H7.84863L7.83105 17.5928L6.90527 15.875L6.86426 15.8848V17.21C6.86426 17.8074 6.38161 18.29 5.78418 18.29H4.13184C3.5346 18.2898 3.05176 17.8073 3.05176 17.21V15.8848L3.01172 15.875L2.08594 17.5928C1.87469 17.9848 1.38843 18.1287 0.996094 17.9209C0.604084 17.7132 0.459962 17.2236 0.667969 16.8311L0.666992 16.8301L1.97168 14.4111C2.49462 13.437 3.51364 12.8291 4.62109 12.8291H5.29199C5.84906 12.8291 6.38232 12.9829 6.84375 13.2598L6.86328 13.2705L6.87402 13.251L8.03125 11.1064C8.5542 10.1325 9.57235 9.52446 10.6797 9.52441ZM4.95801 9.52051C5.3175 9.52051 5.66279 9.66377 5.91699 9.91797C6.17102 10.1721 6.31348 10.5166 6.31348 10.876C6.31348 11.2353 6.17103 11.5798 5.91699 11.834C5.66279 12.0882 5.3175 12.2314 4.95801 12.2314C4.59868 12.2313 4.2541 12.0881 4 11.834C3.74594 11.5798 3.60254 11.2354 3.60254 10.876C3.60254 10.5166 3.74594 10.1721 4 9.91797C4.2541 9.66387 4.59868 9.52063 4.95801 9.52051ZM17.0762 9.52051C17.4356 9.52058 17.78 9.66383 18.0342 9.91797C18.2883 10.1722 18.4316 10.5165 18.4316 10.876C18.4316 11.2354 18.2883 11.5798 18.0342 11.834C17.78 12.0881 17.4356 12.2314 17.0762 12.2314C16.7167 12.2314 16.3714 12.0882 16.1172 11.834C15.8632 11.5798 15.7207 11.2353 15.7207 10.876C15.7207 10.5167 15.8632 10.1721 16.1172 9.91797C16.3714 9.66377 16.7167 9.52051 17.0762 9.52051ZM11.0176 6.21582C11.3768 6.21593 11.7215 6.35836 11.9756 6.6123C12.2298 6.8665 12.373 7.2118 12.373 7.57129C12.373 7.93068 12.2297 8.27513 11.9756 8.5293C11.7215 8.7834 11.3769 8.92665 11.0176 8.92676C10.6581 8.92676 10.3128 8.7835 10.0586 8.5293C9.80457 8.27514 9.66213 7.93064 9.66211 7.57129C9.66211 7.2118 9.80439 6.8665 10.0586 6.6123C10.3128 6.35821 10.6582 6.21582 11.0176 6.21582ZM10.4941 0.842773C10.8128 0.665403 11.1945 0.662154 11.5166 0.830078L11.54 0.842773L21.4541 6.35059C21.9739 6.64089 22.1633 7.29965 21.873 7.81934C21.5827 8.33884 20.9248 8.5273 20.4053 8.2373L11.0273 3.0293L11.0176 3.02344L11.0068 3.0293L1.62598 8.24121C1.10635 8.5313 0.448512 8.34198 0.158203 7.82227C-0.131958 7.30268 0.0565487 6.64488 0.576172 6.35449L10.4941 0.842773Z" fill="url(#paint0_linear_4940_4704)" stroke="url(#paint1_linear_4940_4704)" stroke-width="0.0430308"/>
<defs>
<linearGradient id="paint0_linear_4940_4704" x1="11.0155" y1="0.68457" x2="11.0155" y2="18.3117" gradientUnits="userSpaceOnUse">
<stop stop-color="#111A2E"/>
<stop offset="1" stop-color="#375494"/>
</linearGradient>
<linearGradient id="paint1_linear_4940_4704" x1="11.0155" y1="0.68457" x2="11.0155" y2="18.3117" gradientUnits="userSpaceOnUse">
<stop stop-color="#111A2E"/>
<stop offset="1" stop-color="#375494"/>
</linearGradient>
</defs>
</svg>
