<svg width="20" height="20" viewBox="0 0 20 20" fill="none" xmlns="http://www.w3.org/2000/svg">
<path fill-rule="evenodd" clip-rule="evenodd" d="M11.2553 5.27097C9.92297 5.27097 8.83508 4.17641 8.83508 2.82585V1.15036L13.1106 5.27097H11.2553ZM8.68776 11.5216H4.31757C3.98246 11.5216 3.71048 11.2459 3.71048 10.9063C3.71048 10.5666 3.98246 10.2909 4.31757 10.2909H8.68776C9.02368 10.2909 9.29485 10.5666 9.29485 10.9063C9.29485 11.2459 9.02368 11.5216 8.68776 11.5216ZM4.31595 6.99979H7.03245C7.36756 6.99979 7.63954 7.27549 7.63954 7.61518C7.63954 7.95569 7.36756 8.23056 7.03245 8.23056H4.31595C3.98084 8.23056 3.70887 7.95569 3.70887 7.61518C3.70887 7.27549 3.98084 6.99979 4.31595 6.99979ZM14.2462 5.41538C14.2462 5.38256 14.2462 5.35795 14.2381 5.32513C14.2138 5.17744 14.1895 5.02974 14.1653 4.89026C14.1491 4.8 14.1086 4.72615 14.0438 4.66051L9.4543 0.229744C9.39764 0.172308 9.3167 0.131282 9.23576 0.123077C9.09815 0.106667 8.95245 0.0902563 8.80675 0.0738461C8.78247 0.065641 8.75009 0.065641 8.72581 0.065641C8.25633 0.0246153 7.73829 0 7.19596 0C1.886 0 0 2.09231 0 8C0 13.8995 1.886 16 7.19596 16C12.514 16 14.4 13.8995 14.4 8C14.4 7.01538 14.3514 6.16205 14.2462 5.41538Z" fill="url(#paint0_linear_4875_4394)"/>
<defs>
<linearGradient id="paint0_linear_4875_4394" x1="7.2" y1="0" x2="7.2" y2="16" gradientUnits="userSpaceOnUse">
<stop stop-color="#111A2E"/>
<stop offset="1" stop-color="#375494"/>
</linearGradient>
</defs>
</svg>
