<svg width="20" height="20" viewBox="0 0 20 20" fill="none" xmlns="http://www.w3.org/2000/svg">
<path d="M0 19.0579V6.62676C0 5.59835 0.496875 4.67592 1.25625 4.29518L9.62813 0.0912615C9.86563 -0.0304205 10.1312 -0.0304205 10.3719 0.0912615L18.7437 4.29518C19.5031 4.67592 20 5.60228 20 6.62676V19.0579C20 19.58 19.6656 20 19.25 20H17.75C17.3344 20 17 19.58 17 19.0579V8.69535C17 8.00059 16.5531 7.43928 16 7.43928H4C3.44688 7.43928 3 8.00059 3 8.69535V19.0579C3 19.58 2.66563 20 2.25 20H0.75C0.334375 20 0 19.58 0 19.0579ZM15.25 20H4.75C4.33437 20 4 19.58 4 19.0579V16.8598H16V19.0579C16 19.58 15.6656 20 15.25 20ZM4 15.6037V13.0916H16V15.6037H4ZM4 11.8355V8.69535H16V11.8355H4Z" fill="url(#paint0_linear_4940_4698)"/>
<defs>
<linearGradient id="paint0_linear_4940_4698" x1="0" y1="10" x2="20" y2="10" gradientUnits="userSpaceOnUse">
<stop stop-color="#111A2E"/>
<stop offset="1" stop-color="#375494"/>
</linearGradient>
</defs>
</svg>
