<svg width="17" height="25" viewBox="0 0 17 25" fill="none" xmlns="http://www.w3.org/2000/svg">
<path d="M0.75 5.00833C0.75 3.56167 0.75 2.83833 1.03158 2.2855C1.27925 1.79944 1.67444 1.40425 2.1605 1.15658C2.71333 0.875 3.43667 0.875 4.88333 0.875H12.1167C13.5633 0.875 14.2867 0.875 14.8395 1.15658C15.3256 1.40425 15.7207 1.79944 15.9684 2.2855C16.25 2.83833 16.25 3.56167 16.25 5.00833V22.194C16.25 22.8217 16.25 23.1356 16.1195 23.3074C16.0632 23.3821 15.9912 23.4437 15.9087 23.4878C15.8262 23.532 15.7351 23.5577 15.6416 23.5631C15.4259 23.576 15.165 23.4017 14.6432 23.0542L8.5 18.9583L2.35683 23.0529C1.835 23.4017 1.57408 23.576 1.35708 23.5631C1.26387 23.5575 1.17299 23.5317 1.09071 23.4876C1.00842 23.4434 0.936691 23.3819 0.880458 23.3074C0.75 23.1356 0.75 22.8217 0.75 22.194V5.00833Z" fill="#3874FF" stroke="#3874FF" stroke-linecap="round" stroke-linejoin="round"/>
</svg>
