<svg width="40" height="39" viewBox="0 0 40 39" fill="none" xmlns="http://www.w3.org/2000/svg">
<path d="M34.9414 22.75C34.5104 22.75 34.0971 22.9212 33.7924 23.226C33.4876 23.5307 33.3164 23.944 33.3164 24.375V30.875C33.3164 31.306 33.1452 31.7193 32.8405 32.024C32.5357 32.3288 32.1224 32.5 31.6914 32.5H8.94141C8.51043 32.5 8.0971 32.3288 7.79236 32.024C7.48761 31.7193 7.31641 31.306 7.31641 30.875V24.375C7.31641 23.944 7.1452 23.5307 6.84045 23.226C6.53571 22.9212 6.12238 22.75 5.69141 22.75C5.26043 22.75 4.8471 22.9212 4.54236 23.226C4.23761 23.5307 4.06641 23.944 4.06641 24.375V30.875C4.06641 32.1679 4.58002 33.4079 5.49426 34.3221C6.4085 35.2364 7.64848 35.75 8.94141 35.75H31.6914C32.9843 35.75 34.2243 35.2364 35.1386 34.3221C36.0528 33.4079 36.5664 32.1679 36.5664 30.875V24.375C36.5664 23.944 36.3952 23.5307 36.0905 23.226C35.7857 22.9212 35.3724 22.75 34.9414 22.75ZM19.1627 25.5287C19.3172 25.6767 19.4994 25.7927 19.6989 25.87C19.8934 25.956 20.1037 26.0004 20.3164 26.0004C20.5291 26.0004 20.7394 25.956 20.9339 25.87C21.1334 25.7927 21.3156 25.6767 21.4702 25.5287L27.9702 19.0288C28.2761 18.7228 28.4481 18.3077 28.4481 17.875C28.4481 17.4423 28.2761 17.0272 27.9702 16.7212C27.6642 16.4153 27.2491 16.2434 26.8164 16.2434C26.3837 16.2434 25.9686 16.4153 25.6627 16.7212L21.9414 20.4587V4.875C21.9414 4.44402 21.7702 4.0307 21.4655 3.72595C21.1607 3.4212 20.7474 3.25 20.3164 3.25C19.8854 3.25 19.4721 3.4212 19.1674 3.72595C18.8626 4.0307 18.6914 4.44402 18.6914 4.875V20.4587L14.9702 16.7212C14.8186 16.5697 14.6388 16.4496 14.4408 16.3676C14.2429 16.2856 14.0307 16.2434 13.8164 16.2434C13.6021 16.2434 13.39 16.2856 13.192 16.3676C12.994 16.4496 12.8142 16.5697 12.6627 16.7212C12.5111 16.8728 12.391 17.0526 12.309 17.2506C12.227 17.4486 12.1848 17.6607 12.1848 17.875C12.1848 18.0893 12.227 18.3014 12.309 18.4994C12.391 18.6974 12.5111 18.8772 12.6627 19.0288L19.1627 25.5287Z" fill="#0292E3"/>
</svg>
